<svg width="187" height="62" viewBox="0 0 187 62" fill="none" xmlns="http://www.w3.org/2000/svg">
<path d="M3.87839 53.6337H14.41C15.7933 53.6337 16.9663 53.816 17.9958 54.1917C19.2212 54.6388 20.2367 55.3055 21.0191 56.1726C21.284 56.4664 21.5101 56.7822 21.7171 57.1083C22.8847 56.7525 24.151 56.5714 25.4819 56.5714C27.1127 56.5714 28.5944 56.8111 29.8864 57.2844C30.6444 57.5629 31.3399 57.9155 31.9764 58.3321C32.8067 57.7783 33.7958 57.3369 34.9199 57.0211C36.0007 56.7186 37.1927 56.5714 38.5636 56.5714C40.1403 56.5714 41.4649 56.7359 42.611 57.0761C43.7922 57.4265 44.7651 57.9109 45.5917 58.5329C46.4596 57.9241 47.4292 57.4447 48.4951 57.1161C49.6705 56.7545 50.9493 56.5714 52.2941 56.5714C53.005 56.5714 53.6671 56.6206 54.2949 56.7144C54.9244 54.9215 56.628 53.6341 58.6366 53.6341H64.8712C66.8459 53.6341 68.5305 54.8773 69.1852 56.6239C70.2106 56.7248 71.126 56.9694 71.9613 57.3641C73.1095 57.9076 74.0592 58.6524 74.7837 59.5798C74.8887 59.7137 74.98 59.8551 75.0751 59.9948C75.431 57.9122 75.6207 55.7738 75.6207 53.5903C75.6207 32.7076 58.6924 15.7794 37.8105 15.7794C16.9287 15.7794 0 32.7076 0 53.5903C0 54.2855 0.0256249 54.974 0.0624083 55.6601C0.89107 54.4367 2.2905 53.6337 3.87839 53.6337Z" fill="#D52B1E"/>
<path d="M37.6585 32.2799C28.0431 32.2799 20.2483 40.0747 20.2483 49.6901C20.2483 52.3261 20.8377 54.8245 21.8862 57.0637C23.0079 56.7409 24.2147 56.5715 25.4827 56.5715C27.1136 56.5715 28.5953 56.8112 29.8872 57.2844C30.6452 57.563 31.3408 57.9155 31.9773 58.3321C32.8076 57.7783 33.7966 57.3369 34.9208 57.0212C36.0015 56.7186 37.1935 56.5715 38.5644 56.5715C40.1411 56.5715 41.4658 56.736 42.6118 57.0761C43.793 57.4266 44.7659 57.911 45.5925 58.533C46.4604 57.9242 47.43 57.4448 48.4959 57.1162C49.6714 56.7546 50.9501 56.5715 52.295 56.5715C52.7587 56.5715 53.1955 56.5996 53.6217 56.6401C54.5499 54.5108 55.0682 52.1616 55.0682 49.6901C55.0686 40.0747 47.2738 32.2799 37.6585 32.2799Z" fill="#FBFAF4"/>
<path d="M0.000427246 53.5903C0.000427246 54.2855 0.0260521 54.974 0.0628356 55.6601C0.890671 54.4372 2.29051 53.6341 3.87799 53.6341H6.54623C5.33444 48.1625 3.62629 31.9484 21.7973 19.9847C21.6667 19.8161 21.5448 19.664 21.4204 19.5073C8.74704 25.613 0.000427246 38.5802 0.000427246 53.5903Z" fill="black"/>
<path d="M24.3424 20.1806L28.0055 22.6013H32.7849L31.4359 20.1806L35.0985 22.6013H38.1912C38.1912 22.6013 34.3914 16.0989 27.8042 16.0989C21.2171 16.0989 16.9105 22.6013 16.9105 22.6013H25.691L24.3424 20.1806Z" fill="black"/>
<path d="M13.9484 15.8728L9.6468 14.9941L6.26685 11.6146L8.93262 10.8566L4.63061 9.97836L2.44385 7.79118C2.44385 7.79118 9.72863 5.88051 14.3865 10.538C19.0444 15.1958 17.492 22.8389 17.492 22.8389L11.2835 16.63L13.9484 15.8728Z" fill="black"/>
<path d="M24.4833 26.1787L25.362 30.4803L28.7419 33.8603L29.4995 31.1945L30.3777 35.4965L32.5649 37.6833C32.5649 37.6833 34.4756 30.3985 29.8181 25.741C25.1603 21.0828 17.5172 22.6355 17.5172 22.6355L23.7257 28.8441L24.4833 26.1787Z" fill="black"/>
<path d="M19.0241 27.5939L17.3411 30.1415V33.4656L19.0241 32.527L17.3411 35.0746V37.2254C17.3411 37.2254 21.863 34.5828 21.863 30.0018C21.863 25.4208 17.3411 22.426 17.3411 22.426V28.5317L19.0241 27.5939Z" fill="black"/>
<path d="M12.5349 20.7948L9.98736 22.4777H6.66321L7.60181 20.7948L5.05424 22.4777H2.90344C2.90344 22.4777 5.54648 17.9558 10.1275 17.9558C14.708 17.9554 17.7028 22.4777 17.7028 22.4777H11.5972L12.5349 20.7948Z" fill="black"/>
<path d="M19.7965 14.7899L17.3758 11.1269V6.3471L19.7965 7.69651L17.3758 4.03345V0.941162C17.3758 0.941162 23.8782 4.74102 23.8782 11.3282C23.8782 17.9153 17.3758 22.2219 17.3758 22.2219V13.4413L19.7965 14.7899Z" fill="black"/>
<path d="M61.0527 29.9274L57.3896 32.3481H52.6103L53.9593 29.9274L50.2962 32.3481H47.2039C47.2039 32.3481 51.0038 25.8456 57.5909 25.8456C64.178 25.8456 68.4846 32.3481 68.4846 32.3481H59.7041L61.0527 29.9274Z" fill="black"/>
<path d="M71.4467 25.6196L75.7484 24.7409L79.1287 21.3614L76.4629 20.6034L80.7645 19.7251L82.9517 17.5379C82.9517 17.5379 75.6669 15.6273 71.0095 20.2847C66.3512 24.9426 67.904 32.5857 67.904 32.5857L74.1121 26.3767L71.4467 25.6196Z" fill="black"/>
<path d="M60.9114 35.9256L60.0331 40.2272L56.6532 43.6071L55.8952 40.9413L55.0169 45.2434L52.8302 47.4301C52.8302 47.4301 50.9195 40.1453 55.577 35.4879C60.2348 30.83 67.8779 32.3824 67.8779 32.3824L61.6694 38.5913L60.9114 35.9256Z" fill="black"/>
<path d="M66.371 37.3407L68.054 39.8883V43.2125L66.371 42.2743L68.054 44.8218V46.9726C68.054 46.9726 63.5321 44.33 63.5321 39.749C63.5321 35.168 68.054 32.1733 68.054 32.1733V38.2793L66.371 37.3407Z" fill="black"/>
<path d="M72.8599 30.5411L75.4074 32.2241H78.732L77.7934 30.5411L80.341 32.2241H82.4917C82.4917 32.2241 79.8487 27.7022 75.2681 27.7022C70.6876 27.7018 67.6928 32.2241 67.6928 32.2241H73.7984L72.8599 30.5411Z" fill="black"/>
<path d="M65.5986 24.5367L68.0193 20.8736V16.0939L65.5986 17.4433L68.0193 13.7802V10.6879C68.0193 10.6879 61.5173 14.4878 61.5173 21.0749C61.5173 27.6621 68.0193 31.9686 68.0193 31.9686V23.1873L65.5986 24.5367Z" fill="black"/>
<path d="M70.9161 56.9682C71.2773 57.0789 71.6282 57.2054 71.9617 57.3637C73.1098 57.9072 74.0596 58.652 74.7841 59.5794C74.8891 59.7133 74.9804 59.8547 75.0755 59.9943C75.4313 57.9117 75.621 55.7733 75.621 53.5899C75.621 45.1458 72.8523 37.3489 68.1738 31.0557C67.9155 31.314 67.6452 31.5843 67.3633 31.8661C73.3921 42.499 71.7546 53.2654 70.9161 56.9682Z" fill="black"/>
<path d="M38.468 51.5317C25.2425 42.8524 15.7362 53.5982 5.12854 46.0212L5.78486 53.6337H14.4104C15.7937 53.6337 16.9666 53.816 17.9962 54.1917C19.2216 54.6389 20.2371 55.3055 21.0194 56.1726C21.2843 56.4665 21.5104 56.7822 21.7175 57.1083C22.885 56.7525 24.1514 56.5714 25.4822 56.5714C27.1131 56.5714 28.5948 56.8111 29.8867 57.2844C30.6447 57.5629 31.3403 57.9155 31.9768 58.3321C32.8071 57.7783 33.7961 57.3369 34.9203 57.0211C36.0011 56.7186 37.193 56.5714 38.5639 56.5714C40.1406 56.5714 41.4653 56.7359 42.6113 57.0761C43.7925 57.4265 44.7654 57.9109 45.592 58.5329C46.46 57.9242 47.4296 57.4447 48.4955 57.1162C49.6709 56.7545 50.9496 56.5714 52.2945 56.5714C53.0054 56.5714 53.6675 56.6206 54.2953 56.7144C54.3606 56.528 54.4407 56.3478 54.5284 56.1734C50.6772 54.8269 49.1939 58.5706 38.468 51.5317Z" fill="black"/>
<path d="M103.662 14.6661C103.475 14.3427 102.777 14.181 101.568 14.181C99.9847 14.181 98.7845 14.7172 97.9673 15.7898C97.1502 16.8623 96.7416 18.4115 96.7416 20.4374C96.7416 24.6425 98.3163 26.745 101.466 26.745C101.517 26.745 101.738 26.745 102.13 26.745C102.538 26.745 102.921 26.6939 103.279 26.5918C103.636 26.4726 103.849 26.3534 103.917 26.2343C103.985 26.1151 104.02 25.9278 104.02 25.6725V23.6295L106.624 23.8083V28.2261C105.296 28.9241 103.611 29.2731 101.568 29.2731C98.9633 29.2731 96.9714 28.5411 95.5924 27.077C94.2305 25.6129 93.5495 23.4337 93.5495 20.5396C93.5495 18.9393 93.7793 17.5433 94.239 16.3516C94.6986 15.1599 95.32 14.232 96.1032 13.5681C97.6354 12.2912 99.457 11.6528 101.568 11.6528C103.27 11.6528 104.871 12.0018 106.369 12.6998V17.0411L103.764 17.2198V15.228C103.764 14.9726 103.73 14.7853 103.662 14.6661ZM114.606 27.077C116.462 27.077 117.39 25.5788 117.39 22.5825C117.39 21.0673 117.177 19.9182 116.751 19.1351C116.343 18.3519 115.645 17.9604 114.657 17.9604C113.687 17.9604 112.972 18.3349 112.512 19.084C112.052 19.8331 111.823 20.8545 111.823 22.1484C111.823 24.5489 112.265 26.0555 113.15 26.6684C113.542 26.9408 114.027 27.077 114.606 27.077ZM108.733 22.5059C108.733 21.2461 108.92 20.1565 109.294 19.2372C109.669 18.3009 110.171 17.5858 110.801 17.0921C112.01 16.1728 113.346 15.7132 114.81 15.7132C115.832 15.7132 116.692 15.8834 117.39 16.2239C118.105 16.5474 118.658 16.9304 119.049 17.373C119.458 17.7986 119.799 18.4286 120.071 19.2628C120.36 20.0799 120.505 21.0503 120.505 22.1739C120.505 24.5233 119.935 26.3024 118.794 27.5111C117.653 28.7198 116.189 29.3242 114.402 29.3242C112.631 29.3242 111.244 28.7539 110.239 27.6133C109.235 26.4556 108.733 24.7531 108.733 22.5059ZM128.915 18.037C128.506 17.8838 128.013 17.8072 127.434 17.8072C126.855 17.8072 126.387 17.9434 126.029 18.2157C125.689 18.4711 125.518 18.7946 125.518 19.1861C125.518 19.5607 125.578 19.8586 125.697 20.0799C125.833 20.2842 126.038 20.463 126.31 20.6162C126.736 20.8375 127.246 21.0333 127.842 21.2035C128.438 21.3568 128.881 21.4844 129.17 21.5866C129.46 21.6717 129.817 21.8249 130.243 22.0463C130.685 22.2676 131.017 22.5059 131.239 22.7613C131.835 23.3912 132.132 24.1998 132.132 25.1873C132.132 26.4641 131.664 27.4685 130.728 28.2006C129.809 28.9156 128.634 29.2731 127.204 29.2731C125.127 29.2731 123.561 29.0093 122.505 28.4815V24.9319L124.803 24.7531V25.9789C124.803 26.728 125.518 27.1025 126.948 27.1025C128.379 27.1025 129.094 26.5833 129.094 25.5448C129.094 25.1702 128.966 24.8638 128.711 24.6255C128.472 24.3871 128.234 24.2254 127.995 24.1403C127.757 24.0551 127.468 23.97 127.127 23.8849C126.804 23.7998 126.48 23.7147 126.157 23.6295C125.85 23.5444 125.51 23.4337 125.135 23.2976C124.778 23.1443 124.378 22.9315 123.935 22.6591C123.067 22.0973 122.633 21.161 122.633 19.8501C122.633 18.5222 123.101 17.5007 124.037 16.7857C124.974 16.0707 126.148 15.7132 127.561 15.7132C128.991 15.7132 130.404 16.0536 131.8 16.7346V19.799L129.502 19.9778V18.9052C129.502 18.4796 129.306 18.1902 128.915 18.037ZM136.331 13.3893H137.991V16.0962H141.387L141.132 18.2413H137.991V24.9574C137.991 25.7065 138.127 26.2343 138.399 26.5407C138.672 26.8301 139.089 26.9748 139.651 26.9748C140.229 26.9748 140.808 26.7961 141.387 26.4386L142.153 28.4049C141.302 29.0007 140.221 29.2987 138.91 29.2987C138.144 29.2987 137.497 29.1965 136.969 28.9922C136.441 28.805 136.05 28.5922 135.795 28.3538C135.539 28.1155 135.343 27.7665 135.207 27.3068C135.071 26.8472 134.994 26.4896 134.977 26.2343C134.96 25.9619 134.952 25.5703 134.952 25.0596V18.2413H133.139L133.394 16.3771C134.194 16.309 134.799 16.0281 135.207 15.5344C135.616 15.0237 135.99 14.3086 136.331 13.3893ZM154.588 16.6069V26.1066C154.588 26.379 154.631 26.5662 154.716 26.6684C154.818 26.7705 154.988 26.8301 155.227 26.8472L156.044 26.8982V28.9412H151.984V27.46L151.907 27.4345C151.056 28.6603 149.89 29.2731 148.408 29.2731C146.672 29.2731 145.387 28.7198 144.552 27.6133C143.718 26.5067 143.301 24.9915 143.301 23.0677C143.301 20.7524 143.863 18.9478 144.987 17.6539C146.11 16.3601 147.796 15.7132 150.043 15.7132C151.49 15.7132 153.005 16.0111 154.588 16.6069ZM151.626 24.8808V18.2668C151.149 18.0455 150.494 17.9348 149.66 17.9348C148.519 17.9348 147.693 18.3945 147.183 19.3138C146.672 20.2331 146.417 21.4504 146.417 22.9656C146.417 25.7235 147.302 27.1025 149.072 27.1025C149.822 27.1025 150.434 26.8812 150.911 26.4386C151.388 25.9789 151.626 25.4597 151.626 24.8808ZM164.302 18.037C163.894 17.8838 163.4 17.8072 162.821 17.8072C162.242 17.8072 161.774 17.9434 161.416 18.2157C161.076 18.4711 160.906 18.7946 160.906 19.1861C160.906 19.5607 160.965 19.8586 161.084 20.0799C161.221 20.2842 161.425 20.463 161.697 20.6162C162.123 20.8375 162.634 21.0333 163.23 21.2035C163.825 21.3568 164.268 21.4844 164.557 21.5866C164.847 21.6717 165.204 21.8249 165.63 22.0463C166.073 22.2676 166.405 22.5059 166.626 22.7613C167.222 23.3912 167.52 24.1998 167.52 25.1873C167.52 26.4641 167.052 27.4685 166.115 28.2006C165.196 28.9156 164.021 29.2731 162.591 29.2731C160.514 29.2731 158.948 29.0093 157.892 28.4815V24.9319L160.191 24.7531V25.9789C160.191 26.728 160.906 27.1025 162.336 27.1025C163.766 27.1025 164.481 26.5833 164.481 25.5448C164.481 25.1702 164.353 24.8638 164.098 24.6255C163.859 24.3871 163.621 24.2254 163.383 24.1403C163.144 24.0551 162.855 23.97 162.515 23.8849C162.191 23.7998 161.868 23.7147 161.544 23.6295C161.238 23.5444 160.897 23.4337 160.523 23.2976C160.165 23.1443 159.765 22.9315 159.322 22.6591C158.454 22.0973 158.02 21.161 158.02 19.8501C158.02 18.5222 158.488 17.5007 159.425 16.7857C160.361 16.0707 161.536 15.7132 162.949 15.7132C164.379 15.7132 165.792 16.0536 167.188 16.7346V19.799L164.889 19.9778V18.9052C164.889 18.4796 164.694 18.1902 164.302 18.037Z" fill="black"/>
<path d="M99.7804 41.2498C100.512 41.2498 101.21 41.352 101.874 41.5563V38.9771C101.874 38.6025 101.653 38.3982 101.21 38.3642L100.112 38.2876V36.2702H104.862V51.7965C104.879 52.1881 105.092 52.3838 105.501 52.3838L106.394 52.4349V54.4778H102.257V52.9712L102.181 52.9456C101.415 54.1884 100.257 54.8098 98.7079 54.8098C96.7671 54.8098 95.4051 54.1629 94.622 52.869C93.907 51.6943 93.5495 50.2558 93.5495 48.5533C93.5495 46.3401 94.0943 44.5696 95.1838 43.2417C96.2904 41.9138 97.8226 41.2498 99.7804 41.2498ZM101.874 50.4941V43.8801C101.262 43.6077 100.615 43.4715 99.9337 43.4715C98.81 43.4715 97.9844 43.9227 97.4566 44.825C96.9459 45.7273 96.6905 46.8764 96.6905 48.2724C96.6905 51.1325 97.6098 52.5626 99.4485 52.5626C100.146 52.5626 100.725 52.3668 101.185 51.9752C101.645 51.5667 101.874 51.073 101.874 50.4941ZM114.294 41.2498C115.571 41.2498 116.584 41.5648 117.333 42.1947C118.082 42.8076 118.457 43.6758 118.457 44.7994C118.457 45.5485 118.295 46.2125 117.972 46.7913C117.648 47.3531 117.248 47.7957 116.772 48.1192C116.295 48.4427 115.716 48.7066 115.035 48.9108C113.894 49.2513 112.609 49.4216 111.179 49.4216C111.23 50.3239 111.511 51.0559 112.022 51.6177C112.532 52.1625 113.316 52.4349 114.371 52.4349C115.427 52.4349 116.482 52.0604 117.538 51.3113L118.508 53.3798C118.168 53.6862 117.589 54.0012 116.772 54.3246C115.971 54.6481 115.052 54.8098 114.014 54.8098C111.937 54.8098 110.413 54.2395 109.442 53.0989C108.472 51.9412 107.987 50.3579 107.987 48.349C107.987 46.3401 108.54 44.6547 109.647 43.2928C110.753 41.9308 112.303 41.2498 114.294 41.2498ZM113.12 47.0977C113.75 46.9786 114.329 46.7317 114.856 46.3572C115.384 45.9656 115.648 45.506 115.648 44.9782C115.648 43.9397 115.137 43.4205 114.116 43.4205C113.162 43.4205 112.43 43.8035 111.92 44.5696C111.409 45.3187 111.128 46.221 111.077 47.2765C111.826 47.2595 112.507 47.1999 113.12 47.0977ZM124.825 36.2702V52.3583L126.281 52.4349V54.4778H120.203V52.5371L121.046 52.4604C121.539 52.4094 121.786 52.137 121.786 51.6433V39.0537C121.786 38.6791 121.573 38.4748 121.148 38.4408L120.254 38.3897V36.2702H124.825ZM132.947 54.4778V52.4094L133.79 52.3328C134.283 52.2817 134.53 52.0433 134.53 51.6177V39.7432L133.075 39.6666V37.4959H140.378C142.285 37.4959 143.766 37.9471 144.822 38.8494C145.894 39.7347 146.43 41.0711 146.43 42.8586C146.43 44.6462 145.826 46.0422 144.617 47.0467C143.409 48.0341 141.808 48.5278 139.816 48.5278H137.646V52.2306L140.097 52.3072V54.4778H132.947ZM137.646 46.0507H139.484C141.97 46.0507 143.213 45.0378 143.213 43.0119C143.213 41.7861 142.889 40.9774 142.242 40.5859C141.612 40.1773 140.6 39.973 139.204 39.973H137.646V46.0507ZM154.445 41.2498C155.722 41.2498 156.735 41.5648 157.484 42.1947C158.233 42.8076 158.607 43.6758 158.607 44.7994C158.607 45.5485 158.446 46.2125 158.122 46.7913C157.799 47.3531 157.399 47.7957 156.922 48.1192C156.445 48.4427 155.866 48.7066 155.185 48.9108C154.045 49.2513 152.76 49.4216 151.329 49.4216C151.381 50.3239 151.661 51.0559 152.172 51.6177C152.683 52.1625 153.466 52.4349 154.522 52.4349C155.577 52.4349 156.633 52.0604 157.688 51.3113L158.658 53.3798C158.318 53.6862 157.739 54.0012 156.922 54.3246C156.122 54.6481 155.203 54.8098 154.164 54.8098C152.087 54.8098 150.563 54.2395 149.593 53.0989C148.623 51.9412 148.137 50.3579 148.137 48.349C148.137 46.3401 148.691 44.6547 149.797 43.2928C150.904 41.9308 152.453 41.2498 154.445 41.2498ZM153.27 47.0977C153.9 46.9786 154.479 46.7317 155.007 46.3572C155.534 45.9656 155.798 45.506 155.798 44.9782C155.798 43.9397 155.288 43.4205 154.266 43.4205C153.313 43.4205 152.581 43.8035 152.07 44.5696C151.559 45.3187 151.278 46.221 151.227 47.2765C151.976 47.2595 152.657 47.1999 153.27 47.0977ZM161.988 51.6177V44.5441C161.988 44.2717 161.937 44.0844 161.835 43.9823C161.749 43.8631 161.588 43.795 161.349 43.778L160.277 43.7014V41.6329H164.593V43.5481C164.899 42.8842 165.376 42.3394 166.023 41.9138C166.67 41.4712 167.41 41.2498 168.244 41.2498C169.096 41.2498 169.904 41.4371 170.67 41.8116V45.6166L168.295 45.7954V44.6207C168.295 44.2802 168.21 44.0674 168.04 43.9823C167.853 43.8971 167.623 43.8546 167.351 43.8546C166.67 43.8546 166.108 44.1014 165.665 44.5951C165.24 45.0718 165.027 45.6847 165.027 46.4338V52.3583L167.248 52.4604V54.4778H160.405V52.5371L161.247 52.4604C161.503 52.4264 161.69 52.3583 161.809 52.2562C161.928 52.137 161.988 51.9242 161.988 51.6177ZM185.735 52.4604V54.4778H181.598V52.818C180.661 54.1459 179.282 54.8098 177.461 54.8098C174.822 54.8098 173.503 53.3372 173.503 50.392V44.493C173.503 44.0333 173.29 43.795 172.864 43.778L172.047 43.7269V41.6329H176.542V49.728C176.542 50.6303 176.669 51.3113 176.925 51.771C177.18 52.2306 177.708 52.4604 178.508 52.4604C179.308 52.4604 179.946 52.2136 180.423 51.7199C180.917 51.2262 181.164 50.6303 181.164 49.9323V44.5441C181.164 44.2717 181.113 44.0844 181.01 43.9823C180.925 43.8631 180.764 43.795 180.525 43.778L179.708 43.7269V41.6329H184.203V51.6433C184.203 51.9157 184.245 52.1029 184.33 52.2051C184.415 52.2902 184.586 52.3498 184.841 52.3838L185.735 52.4604ZM176.567 39.309L179.529 34.406L180.73 34.9678C181.223 35.2402 181.47 35.5466 181.47 35.8871C181.47 36.2276 181.257 36.5936 180.832 36.9852L177.563 40.1518L176.567 39.309Z" fill="black"/>
</svg>
