<svg width="83" height="60" viewBox="0 0 83 60" fill="none" xmlns="http://www.w3.org/2000/svg">
<path d="M3.87839 52.6925H14.41C15.7933 52.6925 16.9663 52.8748 17.9958 53.2505C19.2212 53.6977 20.2367 54.3643 21.0191 55.2314C21.284 55.5253 21.5101 55.841 21.7171 56.1671C22.8847 55.8113 24.151 55.6303 25.4819 55.6303C27.1127 55.6303 28.5944 55.87 29.8864 56.3432C30.6444 56.6218 31.3399 56.9743 31.9764 57.3909C32.8067 56.8371 33.7958 56.3957 34.9199 56.0799C36.0007 55.7774 37.1927 55.6303 38.5636 55.6303C40.1403 55.6303 41.4649 55.7948 42.611 56.1349C43.7922 56.4854 44.7651 56.9698 45.5917 57.5918C46.4596 56.983 47.4292 56.5036 48.4951 56.175C49.6705 55.8134 50.9493 55.6303 52.2941 55.6303C53.005 55.6303 53.6671 55.6794 54.2949 55.7733C54.9244 53.9804 56.628 52.693 58.6366 52.693H64.8712C66.8459 52.693 68.5305 53.9361 69.1852 55.6827C70.2106 55.7836 71.126 56.0283 71.9613 56.423C73.1095 56.9665 74.0592 57.7112 74.7837 58.6387C74.8887 58.7726 74.98 58.9139 75.0751 59.0536C75.431 56.971 75.6207 54.8326 75.6207 52.6491C75.6207 31.7665 58.6924 14.8382 37.8105 14.8382C16.9287 14.8382 0 31.7665 0 52.6491C0 53.3443 0.0256249 54.0329 0.0624083 54.7189C0.89107 53.4956 2.2905 52.6925 3.87839 52.6925Z" fill="#D52B1E"/>
<path d="M37.6585 31.3387C28.0431 31.3387 20.2483 39.1335 20.2483 48.7489C20.2483 51.3849 20.8377 53.8833 21.8862 56.1226C23.0079 55.7998 24.2147 55.6303 25.4827 55.6303C27.1136 55.6303 28.5953 55.87 29.8872 56.3433C30.6452 56.6218 31.3408 56.9744 31.9773 57.391C32.8076 56.8371 33.7966 56.3957 34.9208 56.08C36.0015 55.7775 37.1935 55.6303 38.5644 55.6303C40.1411 55.6303 41.4658 55.7948 42.6118 56.135C43.793 56.4854 44.7659 56.9698 45.5925 57.5918C46.4604 56.983 47.43 56.5036 48.4959 56.175C49.6714 55.8134 50.9501 55.6303 52.295 55.6303C52.7587 55.6303 53.1955 55.6584 53.6217 55.6989C54.5499 53.5696 55.0682 51.2204 55.0682 48.7489C55.0686 39.1335 47.2738 31.3387 37.6585 31.3387Z" fill="#FBFAF4"/>
<path d="M0.000427246 52.6492C0.000427246 53.3443 0.0260521 54.0329 0.0628356 54.719C0.890671 53.496 2.29051 52.693 3.87799 52.693H6.54623C5.33444 47.2213 3.62629 31.0072 21.7973 19.0435C21.6667 18.8749 21.5448 18.7228 21.4204 18.5662C8.74704 24.6718 0.000427246 37.639 0.000427246 52.6492Z" fill="black"/>
<path d="M24.3424 19.2394L28.0055 21.6601H32.7849L31.4359 19.2394L35.0985 21.6601H38.1912C38.1912 21.6601 34.3914 15.1577 27.8042 15.1577C21.2171 15.1577 16.9105 21.6601 16.9105 21.6601H25.691L24.3424 19.2394Z" fill="black"/>
<path d="M13.9484 14.9316L9.6468 14.053L6.26685 10.6734L8.93262 9.91545L4.63061 9.03719L2.44385 6.85002C2.44385 6.85002 9.72863 4.93935 14.3865 9.5968C19.0444 14.2547 17.492 21.8978 17.492 21.8978L11.2835 15.6888L13.9484 14.9316Z" fill="black"/>
<path d="M24.4833 25.2376L25.362 29.5392L28.7419 32.9191L29.4995 30.2533L30.3777 34.5554L32.5649 36.7421C32.5649 36.7421 34.4756 29.4573 29.8181 24.7999C25.1603 20.1416 17.5172 21.6944 17.5172 21.6944L23.7257 27.9029L24.4833 25.2376Z" fill="black"/>
<path d="M19.0241 26.6527L17.3411 29.2003V32.5245L19.0241 31.5859L17.3411 34.1334V36.2842C17.3411 36.2842 21.863 33.6416 21.863 29.0606C21.863 24.4796 17.3411 21.4849 17.3411 21.4849V27.5905L19.0241 26.6527Z" fill="black"/>
<path d="M12.5349 19.8536L9.98736 21.5365H6.66321L7.60181 19.8536L5.05424 21.5365H2.90344C2.90344 21.5365 5.54648 17.0146 10.1275 17.0146C14.708 17.0142 17.7028 21.5365 17.7028 21.5365H11.5972L12.5349 19.8536Z" fill="black"/>
<path d="M19.7965 13.8488L17.3758 10.1857V5.40593L19.7965 6.75535L17.3758 3.09229V0C17.3758 0 23.8782 3.79985 23.8782 10.387C23.8782 16.9741 17.3758 21.2807 17.3758 21.2807V12.5002L19.7965 13.8488Z" fill="black"/>
<path d="M61.0527 28.9862L57.3896 31.4069H52.6103L53.9593 28.9862L50.2962 31.4069H47.2039C47.2039 31.4069 51.0038 24.9045 57.5909 24.9045C64.178 24.9045 68.4846 31.4069 68.4846 31.4069H59.7041L61.0527 28.9862Z" fill="black"/>
<path d="M71.4467 24.6784L75.7484 23.7997L79.1287 20.4202L76.4629 19.6622L80.7645 18.784L82.9517 16.5968C82.9517 16.5968 75.6669 14.6861 71.0095 19.3436C66.3512 24.0014 67.904 31.6445 67.904 31.6445L74.1121 25.4356L71.4467 24.6784Z" fill="black"/>
<path d="M60.9114 34.9844L60.0331 39.286L56.6532 42.6659L55.8952 40.0002L55.0169 44.3022L52.8302 46.489C52.8302 46.489 50.9195 39.2042 55.577 34.5467C60.2348 29.8888 67.8779 31.4412 67.8779 31.4412L61.6694 37.6502L60.9114 34.9844Z" fill="black"/>
<path d="M66.371 36.3996L68.054 38.9471V42.2713L66.371 41.3331L68.054 43.8807V46.0315C68.054 46.0315 63.5321 43.3889 63.5321 38.8079C63.5321 34.2269 68.054 31.2321 68.054 31.2321V37.3382L66.371 36.3996Z" fill="black"/>
<path d="M72.8599 29.6L75.4074 31.2829H78.732L77.7934 29.6L80.341 31.2829H82.4917C82.4917 31.2829 79.8487 26.761 75.2681 26.761C70.6876 26.7606 67.6928 31.2829 67.6928 31.2829H73.7984L72.8599 29.6Z" fill="black"/>
<path d="M65.5986 23.5955L68.0193 19.9325V15.1527L65.5986 16.5021L68.0193 12.8391V9.74677C68.0193 9.74677 61.5173 13.5466 61.5173 20.1338C61.5173 26.7209 68.0193 31.0275 68.0193 31.0275V22.2461L65.5986 23.5955Z" fill="black"/>
<path d="M70.9161 56.027C71.2773 56.1378 71.6282 56.2643 71.9617 56.4225C73.1098 56.966 74.0596 57.7108 74.7841 58.6382C74.8891 58.7721 74.9804 58.9135 75.0755 59.0532C75.4313 56.9706 75.621 54.8322 75.621 52.6487C75.621 44.2046 72.8523 36.4078 68.1738 30.1145C67.9155 30.3728 67.6452 30.6431 67.3633 30.925C73.3921 41.5579 71.7546 52.3243 70.9161 56.027Z" fill="black"/>
<path d="M38.468 50.5905C25.2425 41.9113 15.7362 52.657 5.12854 45.08L5.78486 52.6925H14.4104C15.7937 52.6925 16.9666 52.8748 17.9962 53.2505C19.2216 53.6977 20.2371 54.3643 21.0194 55.2314C21.2843 55.5253 21.5104 55.8411 21.7175 56.1671C22.885 55.8113 24.1514 55.6303 25.4822 55.6303C27.1131 55.6303 28.5948 55.87 29.8867 56.3432C30.6447 56.6218 31.3403 56.9743 31.9768 57.3909C32.8071 56.8371 33.7961 56.3957 34.9203 56.0799C36.0011 55.7774 37.193 55.6303 38.5639 55.6303C40.1406 55.6303 41.4653 55.7948 42.6113 56.1349C43.7925 56.4854 44.7655 56.9698 45.592 57.5918C46.46 56.983 47.4296 56.5036 48.4955 56.175C49.6709 55.8134 50.9496 55.6303 52.2945 55.6303C53.0054 55.6303 53.6675 55.6795 54.2953 55.7733C54.3606 55.5869 54.4407 55.4067 54.5284 55.2323C50.6773 53.8857 49.1939 57.6294 38.468 50.5905Z" fill="black"/>
</svg>
