<svg width="94" height="61" viewBox="0 0 94 61" fill="none" xmlns="http://www.w3.org/2000/svg">
<path d="M11.134 13.725C10.9467 13.4015 10.2487 13.2398 9.03999 13.2398C7.45672 13.2398 6.25649 13.7761 5.43932 14.8486C4.62214 15.9211 4.21356 17.4704 4.21356 19.4963C4.21356 23.7013 5.78832 25.8038 8.93784 25.8038C8.98892 25.8038 9.21024 25.8038 9.6018 25.8038C10.0104 25.8038 10.3934 25.7528 10.751 25.6506C11.1085 25.5315 11.3213 25.4123 11.3894 25.2931C11.4575 25.1739 11.4915 24.9867 11.4915 24.7313V22.6884L14.0963 22.8671V27.285C12.7683 27.983 11.0829 28.332 9.03999 28.332C6.43525 28.332 4.44339 27.5999 3.0644 26.1358C1.70245 24.6717 1.02147 22.4926 1.02147 19.5984C1.02147 17.9981 1.2513 16.6021 1.71096 15.4104C2.17062 14.2187 2.79201 13.2909 3.57514 12.6269C5.10734 11.3501 6.92896 10.7117 9.03999 10.7117C10.7424 10.7117 12.3427 11.0607 13.8409 11.7587V16.0999L11.2361 16.2787V14.2868C11.2361 14.0314 11.2021 13.8442 11.134 13.725ZM22.0781 26.1358C23.9337 26.1358 24.8616 24.6377 24.8616 21.6414C24.8616 20.1262 24.6488 18.977 24.2232 18.1939C23.8146 17.4108 23.1166 17.0192 22.1291 17.0192C21.1587 17.0192 20.4437 17.3938 19.9841 18.1428C19.5244 18.8919 19.2946 19.9134 19.2946 21.2072C19.2946 23.6077 19.7372 25.1144 20.6225 25.7272C21.014 25.9996 21.4992 26.1358 22.0781 26.1358ZM16.2046 21.5648C16.2046 20.3049 16.3919 19.2154 16.7664 18.2961C17.141 17.3597 17.6432 16.6447 18.2731 16.151C19.4818 15.2317 20.8183 14.772 22.2824 14.772C23.3038 14.772 24.1636 14.9422 24.8616 15.2827C25.5766 15.6062 26.1299 15.9892 26.5215 16.4319C26.93 16.8575 27.2705 17.4874 27.5429 18.3216C27.8323 19.1388 27.977 20.1092 27.977 21.2328C27.977 23.5822 27.4067 25.3612 26.2661 26.5699C25.1255 27.7787 23.6613 28.3831 21.8738 28.3831C20.1032 28.3831 18.7157 27.8127 17.7113 26.6721C16.7069 25.5144 16.2046 23.812 16.2046 21.5648ZM36.3868 17.0958C35.9782 16.9426 35.4845 16.866 34.9057 16.866C34.3268 16.866 33.8587 17.0022 33.5012 17.2746C33.1607 17.53 32.9904 17.8534 32.9904 18.245C32.9904 18.6195 33.05 18.9174 33.1692 19.1388C33.3054 19.3431 33.5097 19.5218 33.7821 19.675C34.2077 19.8964 34.7184 20.0921 35.3143 20.2624C35.9101 20.4156 36.3528 20.5433 36.6422 20.6454C36.9316 20.7306 37.2891 20.8838 37.7147 21.1051C38.1573 21.3264 38.4893 21.5648 38.7106 21.8201C39.3065 22.45 39.6044 23.2587 39.6044 24.2461C39.6044 25.5229 39.1363 26.5274 38.1999 27.2594C37.2806 27.9745 36.1059 28.332 34.6758 28.332C32.5989 28.332 31.0326 28.0681 29.9771 27.5403V23.9907L32.2754 23.812V25.0377C32.2754 25.7868 32.9904 26.1614 34.4205 26.1614C35.8505 26.1614 36.5656 25.6421 36.5656 24.6036C36.5656 24.2291 36.4379 23.9226 36.1825 23.6843C35.9442 23.446 35.7058 23.2842 35.4675 23.1991C35.2291 23.114 34.9397 23.0289 34.5992 22.9437C34.2758 22.8586 33.9523 22.7735 33.6288 22.6884C33.3224 22.6032 32.9819 22.4926 32.6074 22.3564C32.2499 22.2032 31.8498 21.9904 31.4071 21.718C30.5389 21.1562 30.1048 20.2198 30.1048 18.9089C30.1048 17.581 30.5729 16.5596 31.5093 15.8445C32.4456 15.1295 33.6203 14.772 35.0334 14.772C36.4634 14.772 37.8764 15.1125 39.2724 15.7935V18.8579L36.9741 19.0366V17.9641C36.9741 17.5385 36.7784 17.2491 36.3868 17.0958ZM43.8028 12.4482H45.4627V15.155H48.8591L48.6037 17.3001H45.4627V24.0163C45.4627 24.7654 45.5989 25.2931 45.8713 25.5996C46.1437 25.889 46.5608 26.0337 47.1226 26.0337C47.7014 26.0337 48.2803 25.8549 48.8591 25.4974L49.6252 27.4637C48.774 28.0596 47.6929 28.3575 46.382 28.3575C45.6159 28.3575 44.969 28.2554 44.4412 28.0511C43.9135 27.8638 43.5219 27.651 43.2665 27.4127C43.0112 27.1743 42.8154 26.8253 42.6792 26.3657C42.543 25.906 42.4664 25.5485 42.4494 25.2931C42.4323 25.0207 42.4238 24.6292 42.4238 24.1184V17.3001H40.6107L40.8661 15.4359C41.6662 15.3678 42.2706 15.0869 42.6792 14.5932C43.0878 14.0825 43.4623 13.3675 43.8028 12.4482ZM62.0604 15.6658V25.1654C62.0604 25.4378 62.1029 25.6251 62.188 25.7272C62.2902 25.8294 62.4604 25.889 62.6988 25.906L63.516 25.9571V28H59.4556V26.5189L59.379 26.4933C58.5278 27.7191 57.3616 28.332 55.8805 28.332C54.144 28.332 52.8586 27.7787 52.0244 26.6721C51.1902 25.5655 50.7731 24.0503 50.7731 22.1266C50.7731 19.8112 51.3349 18.0066 52.4586 16.7128C53.5822 15.4189 55.2676 14.772 57.5148 14.772C58.9619 14.772 60.4771 15.0699 62.0604 15.6658ZM59.0981 23.9397V17.3257C58.6214 17.1043 57.966 16.9937 57.1318 16.9937C55.9911 16.9937 55.1655 17.4533 54.6547 18.3727C54.144 19.292 53.8886 20.5092 53.8886 22.0244C53.8886 24.7824 54.7739 26.1614 56.5444 26.1614C57.2935 26.1614 57.9064 25.94 58.3831 25.4974C58.8598 25.0377 59.0981 24.5185 59.0981 23.9397ZM71.7741 17.0958C71.3655 16.9426 70.8718 16.866 70.293 16.866C69.7141 16.866 69.2459 17.0022 68.8884 17.2746C68.5479 17.53 68.3777 17.8534 68.3777 18.245C68.3777 18.6195 68.4373 18.9174 68.5565 19.1388C68.6927 19.3431 68.8969 19.5218 69.1693 19.675C69.5949 19.8964 70.1057 20.0921 70.7015 20.2624C71.2974 20.4156 71.74 20.5433 72.0294 20.6454C72.3189 20.7306 72.6764 20.8838 73.102 21.1051C73.5446 21.3264 73.8766 21.5648 74.0979 21.8201C74.6938 22.45 74.9917 23.2587 74.9917 24.2461C74.9917 25.5229 74.5235 26.5274 73.5872 27.2594C72.6679 27.9745 71.4932 28.332 70.0631 28.332C67.9861 28.332 66.4199 28.0681 65.3644 27.5403V23.9907L67.6627 23.812V25.0377C67.6627 25.7868 68.3777 26.1614 69.8078 26.1614C71.2378 26.1614 71.9528 25.6421 71.9528 24.6036C71.9528 24.2291 71.8252 23.9226 71.5698 23.6843C71.3314 23.446 71.0931 23.2842 70.8548 23.1991C70.6164 23.114 70.327 23.0289 69.9865 22.9437C69.663 22.8586 69.3396 22.7735 69.0161 22.6884C68.7097 22.6032 68.3692 22.4926 67.9946 22.3564C67.6371 22.2032 67.2371 21.9904 66.7944 21.718C65.9262 21.1562 65.4921 20.2198 65.4921 18.9089C65.4921 17.581 65.9602 16.5596 66.8966 15.8445C67.8329 15.1295 69.0076 14.772 70.4206 14.772C71.8507 14.772 73.2637 15.1125 74.6597 15.7935V18.8579L72.3614 19.0366V17.9641C72.3614 17.5385 72.1656 17.2491 71.7741 17.0958Z" fill="black"/>
<path d="M7.25245 40.3087C7.98451 40.3087 8.68251 40.4108 9.34646 40.6151V38.0359C9.34646 37.6614 9.12514 37.4571 8.68251 37.423L7.58443 37.3464V35.329H12.3343V50.8553C12.3513 51.2469 12.5641 51.4427 12.9727 51.4427L13.8665 51.4937V53.5367H9.72951V52.03L9.6529 52.0045C8.8868 53.2473 7.72914 53.8687 6.17991 53.8687C4.23912 53.8687 2.87717 53.2217 2.09404 51.9279C1.37901 50.7532 1.0215 49.3146 1.0215 47.6122C1.0215 45.399 1.56628 43.6284 2.65585 42.3005C3.76244 40.9726 5.29464 40.3087 7.25245 40.3087ZM9.34646 49.553V42.939C8.73358 42.6666 8.08665 42.5304 7.40567 42.5304C6.28206 42.5304 5.45637 42.9815 4.92861 43.8838C4.41788 44.7861 4.16251 45.9353 4.16251 47.3313C4.16251 50.1914 5.08183 51.6214 6.92048 51.6214C7.61848 51.6214 8.19731 51.4256 8.65697 51.0341C9.11663 50.6255 9.34646 50.1318 9.34646 49.553ZM21.7665 40.3087C23.0433 40.3087 24.0563 40.6236 24.8053 41.2535C25.5544 41.8664 25.929 42.7347 25.929 43.8583C25.929 44.6074 25.7672 45.2713 25.4438 45.8501C25.1203 46.4119 24.7202 46.8546 24.2435 47.178C23.7668 47.5015 23.188 47.7654 22.507 47.9697C21.3664 48.3102 20.0811 48.4804 18.651 48.4804C18.7021 49.3827 18.983 50.1148 19.4937 50.6766C20.0044 51.2214 20.7876 51.4937 21.8431 51.4937C22.8986 51.4937 23.9541 51.1192 25.0096 50.3701L25.98 52.4386C25.6395 52.745 25.0607 53.06 24.2435 53.3835C23.4434 53.7069 22.5241 53.8687 21.4856 53.8687C19.4086 53.8687 17.8849 53.2983 16.9145 52.1577C15.9441 51 15.4589 49.4168 15.4589 47.4079C15.4589 45.399 16.0122 43.7136 17.1188 42.3516C18.2254 40.9897 19.7746 40.3087 21.7665 40.3087ZM20.5918 46.1566C21.2217 46.0374 21.8005 45.7906 22.3283 45.416C22.856 45.0244 23.1199 44.5648 23.1199 44.037C23.1199 42.9985 22.6092 42.4793 21.5877 42.4793C20.6343 42.4793 19.9023 42.8623 19.3916 43.6284C18.8808 44.3775 18.5999 45.2798 18.5488 46.3353C19.2979 46.3183 19.9789 46.2587 20.5918 46.1566ZM32.2972 35.329V51.4171L33.7528 51.4937V53.5367H27.675V51.5959L28.5177 51.5193C29.0114 51.4682 29.2583 51.1958 29.2583 50.7021V38.1125C29.2583 37.738 29.0455 37.5337 28.6199 37.4996L27.7261 37.4486V35.329H32.2972ZM40.419 53.5367V51.4682L41.2617 51.3916C41.7555 51.3405 42.0023 51.1022 42.0023 50.6766V38.802L40.5467 38.7254V36.5548H47.8502C49.757 36.5548 51.2381 37.0059 52.2936 37.9082C53.3661 38.7935 53.9024 40.1299 53.9024 41.9175C53.9024 43.7051 53.298 45.1011 52.0893 46.1055C50.8806 47.0929 49.2803 47.5866 47.2884 47.5866H45.1178V51.2895L47.5693 51.3661V53.5367H40.419ZM45.1178 45.1096H46.9564C49.442 45.1096 50.6848 44.0966 50.6848 42.0707C50.6848 40.8449 50.3613 40.0363 49.7144 39.6447C49.0845 39.2361 48.0715 39.0318 46.6755 39.0318H45.1178V45.1096ZM61.9169 40.3087C63.1938 40.3087 64.2067 40.6236 64.9558 41.2535C65.7049 41.8664 66.0794 42.7347 66.0794 43.8583C66.0794 44.6074 65.9177 45.2713 65.5942 45.8501C65.2708 46.4119 64.8707 46.8546 64.394 47.178C63.9173 47.5015 63.3385 47.7654 62.6575 47.9697C61.5169 48.3102 60.2315 48.4804 58.8015 48.4804C58.8525 49.3827 59.1334 50.1148 59.6442 50.6766C60.1549 51.2214 60.938 51.4937 61.9936 51.4937C63.0491 51.4937 64.1046 51.1192 65.1601 50.3701L66.1305 52.4386C65.79 52.745 65.2112 53.06 64.394 53.3835C63.5939 53.7069 62.6745 53.8687 61.636 53.8687C59.5591 53.8687 58.0354 53.2983 57.065 52.1577C56.0946 51 55.6094 49.4168 55.6094 47.4079C55.6094 45.399 56.1627 43.7136 57.2693 42.3516C58.3759 40.9897 59.9251 40.3087 61.9169 40.3087ZM60.7423 46.1566C61.3722 46.0374 61.951 45.7906 62.4788 45.416C63.0065 45.0244 63.2704 44.5648 63.2704 44.037C63.2704 42.9985 62.7597 42.4793 61.7382 42.4793C60.7848 42.4793 60.0528 42.8623 59.542 43.6284C59.0313 44.3775 58.7504 45.2798 58.6993 46.3353C59.4484 46.3183 60.1294 46.2587 60.7423 46.1566ZM69.4598 50.6766V43.6029C69.4598 43.3305 69.4088 43.1432 69.3066 43.0411C69.2215 42.9219 69.0598 42.8538 68.8214 42.8368L67.7489 42.7602V40.6917H72.0646V42.607C72.371 41.943 72.8477 41.3982 73.4946 40.9726C74.1416 40.53 74.8821 40.3087 75.7163 40.3087C76.5676 40.3087 77.3762 40.4959 78.1423 40.8705V44.6754L75.7674 44.8542V43.6795C75.7674 43.339 75.6823 43.1262 75.512 43.0411C75.3248 42.956 75.0949 42.9134 74.8226 42.9134C74.1416 42.9134 73.5798 43.1603 73.1371 43.654C72.7115 44.1307 72.4987 44.7435 72.4987 45.4926V51.4171L74.7204 51.5193V53.5367H67.8766V51.5959L68.7193 51.5193C68.9746 51.4852 69.1619 51.4171 69.2811 51.315C69.4003 51.1958 69.4598 50.983 69.4598 50.6766ZM93.2068 51.5193V53.5367H89.0698V51.8768C88.1335 53.2047 86.7545 53.8687 84.9329 53.8687C82.2941 53.8687 80.9747 52.396 80.9747 49.4508V43.5518C80.9747 43.0922 80.7619 42.8538 80.3363 42.8368L79.5191 42.7857V40.6917H84.0136V48.7869C84.0136 49.6892 84.1413 50.3701 84.3966 50.8298C84.652 51.2895 85.1797 51.5193 85.9799 51.5193C86.78 51.5193 87.4185 51.2724 87.8951 50.7787C88.3889 50.285 88.6357 49.6892 88.6357 48.9911V43.6029C88.6357 43.3305 88.5846 43.1432 88.4825 43.0411C88.3974 42.9219 88.2356 42.8538 87.9973 42.8368L87.1801 42.7857V40.6917H91.6746V50.7021C91.6746 50.9745 91.7171 51.1618 91.8023 51.2639C91.8874 51.349 92.0576 51.4086 92.313 51.4427L93.2068 51.5193ZM84.0391 38.3679L87.0014 33.4648L88.2016 34.0266C88.6953 34.299 88.9422 34.6055 88.9422 34.946C88.9422 35.2865 88.7293 35.6525 88.3037 36.044L85.035 39.2106L84.0391 38.3679Z" fill="black"/>
</svg>
