<svg width="187" height="61" viewBox="0 0 187 61" fill="none" xmlns="http://www.w3.org/2000/svg">
<path d="M3.87839 53.5748H14.41C15.7933 53.5748 16.9663 53.7571 17.9958 54.1328C19.2212 54.5799 20.2367 55.2466 21.0191 56.1137C21.284 56.4076 21.5101 56.7233 21.7171 57.0494C22.8847 56.6936 24.151 56.5125 25.4819 56.5125C27.1127 56.5125 28.5944 56.7522 29.8864 57.2255C30.6444 57.504 31.3399 57.8566 31.9764 58.2732C32.8067 57.7194 33.7958 57.278 34.9199 56.9622C36.0007 56.6597 37.1927 56.5125 38.5636 56.5125C40.1403 56.5125 41.4649 56.677 42.611 57.0172C43.7922 57.3676 44.7651 57.852 45.5917 58.474C46.4596 57.8652 47.4292 57.3858 48.4951 57.0573C49.6705 56.6956 50.9493 56.5125 52.2941 56.5125C53.005 56.5125 53.6671 56.5617 54.2949 56.6555C54.9244 54.8626 56.628 53.5752 58.6366 53.5752H64.8712C66.8459 53.5752 68.5305 54.8184 69.1852 56.565C70.2106 56.6659 71.126 56.9105 71.9613 57.3052C73.1095 57.8487 74.0592 58.5935 74.7837 59.5209C74.8887 59.6548 74.98 59.7962 75.0751 59.9359C75.431 57.8533 75.6207 55.7149 75.6207 53.5314C75.6207 32.6487 58.6924 15.7205 37.8105 15.7205C16.9287 15.7205 0 32.6487 0 53.5314C0 54.2266 0.0256249 54.9151 0.0624083 55.6012C0.89107 54.3778 2.2905 53.5748 3.87839 53.5748Z" fill="#6E6E6E"/>
<path d="M37.6585 32.2209C28.0431 32.2209 20.2483 40.0157 20.2483 49.6311C20.2483 52.2671 20.8377 54.7655 21.8862 57.0048C23.0079 56.682 24.2147 56.5125 25.4827 56.5125C27.1136 56.5125 28.5953 56.7522 29.8872 57.2255C30.6452 57.504 31.3408 57.8566 31.9773 58.2732C32.8076 57.7194 33.7966 57.278 34.9208 56.9622C36.0015 56.6597 37.1935 56.5125 38.5644 56.5125C40.1411 56.5125 41.4658 56.677 42.6118 57.0172C43.793 57.3676 44.7659 57.852 45.5925 58.474C46.4604 57.8652 47.43 57.3858 48.4959 57.0572C49.6714 56.6956 50.9501 56.5125 52.295 56.5125C52.7587 56.5125 53.1955 56.5406 53.6217 56.5811C54.5499 54.4518 55.0682 52.1026 55.0682 49.6311C55.0686 40.0157 47.2738 32.2209 37.6585 32.2209Z" fill="#FBFAF4"/>
<path d="M0.000427246 53.5315C0.000427246 54.2267 0.0260521 54.9152 0.0628356 55.6013C0.890671 54.3783 2.29051 53.5753 3.87799 53.5753H6.54623C5.33444 48.1037 3.62629 31.8896 21.7973 19.9258C21.6667 19.7572 21.5448 19.6051 21.4204 19.4485C8.74704 25.5541 0.000427246 38.5213 0.000427246 53.5315Z" fill="white"/>
<path d="M24.3424 20.1218L28.0055 22.5424H32.7849L31.4359 20.1218L35.0985 22.5424H38.1912C38.1912 22.5424 34.3914 16.04 27.8042 16.04C21.2171 16.04 16.9105 22.5424 16.9105 22.5424H25.691L24.3424 20.1218Z" fill="white"/>
<path d="M13.9484 15.814L9.6468 14.9353L6.26685 11.5558L8.93262 10.7978L4.63061 9.91952L2.44385 7.73234C2.44385 7.73234 9.72863 5.82167 14.3865 10.4791C19.0444 15.137 17.492 22.7801 17.492 22.7801L11.2835 16.5711L13.9484 15.814Z" fill="white"/>
<path d="M24.4833 26.12L25.362 30.4216L28.7419 33.8016L29.4995 31.1358L30.3777 35.4378L32.5649 37.6246C32.5649 37.6246 34.4756 30.3398 29.8181 25.6823C25.1603 21.024 17.5172 22.5768 17.5172 22.5768L23.7257 28.7854L24.4833 26.12Z" fill="white"/>
<path d="M19.0241 27.5351L17.3411 30.0826V33.4068L19.0241 32.4682L17.3411 35.0158V37.1665C17.3411 37.1665 21.863 34.5239 21.863 29.9429C21.863 25.3619 17.3411 22.3672 17.3411 22.3672V28.4728L19.0241 27.5351Z" fill="white"/>
<path d="M12.5349 20.7359L9.98736 22.4189H6.66321L7.60181 20.7359L5.05424 22.4189H2.90344C2.90344 22.4189 5.54648 17.897 10.1275 17.897C14.708 17.8966 17.7028 22.4189 17.7028 22.4189H11.5972L12.5349 20.7359Z" fill="white"/>
<path d="M19.7965 14.7311L17.3758 11.068V6.28826L19.7965 7.63768L17.3758 3.97462V0.882324C17.3758 0.882324 23.8782 4.68218 23.8782 11.2693C23.8782 17.8565 17.3758 22.163 17.3758 22.163V13.3825L19.7965 14.7311Z" fill="white"/>
<path d="M61.0527 29.8686L57.3896 32.2893H52.6103L53.9593 29.8686L50.2962 32.2893H47.2039C47.2039 32.2893 51.0038 25.7869 57.5909 25.7869C64.178 25.7869 68.4846 32.2893 68.4846 32.2893H59.7041L61.0527 29.8686Z" fill="white"/>
<path d="M71.4467 25.5608L75.7484 24.6821L79.1287 21.3026L76.4629 20.5446L80.7645 19.6663L82.9517 17.4792C82.9517 17.4792 75.6669 15.5685 71.0095 20.2259C66.3512 24.8838 67.904 32.5269 67.904 32.5269L74.1121 26.318L71.4467 25.5608Z" fill="white"/>
<path d="M60.9114 35.8667L60.0331 40.1683L56.6532 43.5483L55.8952 40.8825L55.0169 45.1845L52.8302 47.3713C52.8302 47.3713 50.9195 40.0865 55.577 35.429C60.2348 30.7712 67.8779 32.3235 67.8779 32.3235L61.6694 38.5325L60.9114 35.8667Z" fill="white"/>
<path d="M66.371 37.282L68.054 39.8295V43.1537L66.371 42.2155L68.054 44.7631V46.9139C68.054 46.9139 63.5321 44.2712 63.5321 39.6902C63.5321 35.1093 68.054 32.1145 68.054 32.1145V38.2206L66.371 37.282Z" fill="white"/>
<path d="M72.8599 30.4822L75.4074 32.1652H78.732L77.7934 30.4822L80.341 32.1652H82.4917C82.4917 32.1652 79.8487 27.6433 75.2681 27.6433C70.6876 27.6429 67.6928 32.1652 67.6928 32.1652H73.7984L72.8599 30.4822Z" fill="white"/>
<path d="M65.5986 24.4779L68.0193 20.8149V16.0351L65.5986 17.3845L68.0193 13.7214V10.6292C68.0193 10.6292 61.5173 14.429 61.5173 21.0161C61.5173 27.6033 68.0193 31.9098 68.0193 31.9098V23.1285L65.5986 24.4779Z" fill="white"/>
<path d="M70.9161 56.9093C71.2773 57.0201 71.6282 57.1466 71.9617 57.3049C73.1098 57.8484 74.0596 58.5931 74.7841 59.5206C74.8891 59.6545 74.9804 59.7958 75.0755 59.9355C75.4313 57.8529 75.621 55.7145 75.621 53.5311C75.621 45.087 72.8523 37.2901 68.1738 30.9968C67.9155 31.2551 67.6452 31.5254 67.3633 31.8073C73.3921 42.4402 71.7546 53.2066 70.9161 56.9093Z" fill="white"/>
<path d="M38.468 51.4729C25.2425 42.7937 15.7362 53.5394 5.12854 45.9624L5.78486 53.5749H14.4104C15.7937 53.5749 16.9666 53.7572 17.9962 54.1329C19.2216 54.5801 20.2371 55.2467 21.0194 56.1138C21.2843 56.4077 21.5104 56.7234 21.7175 57.0495C22.885 56.6937 24.1514 56.5127 25.4822 56.5127C27.1131 56.5127 28.5948 56.7524 29.8867 57.2256C30.6447 57.5042 31.3403 57.8567 31.9768 58.2733C32.8071 57.7195 33.7961 57.2781 34.9203 56.9623C36.0011 56.6598 37.193 56.5127 38.5639 56.5127C40.1406 56.5127 41.4653 56.6772 42.6113 57.0173C43.7925 57.3678 44.7654 57.8522 45.592 58.4742C46.46 57.8654 47.4296 57.386 48.4955 57.0574C49.6709 56.6957 50.9496 56.5127 52.2945 56.5127C53.0054 56.5127 53.6675 56.5618 54.2953 56.6557C54.3606 56.4693 54.4407 56.2891 54.5284 56.1146C50.6772 54.7681 49.1939 58.5118 38.468 51.4729Z" fill="white"/>
<path d="M103.662 14.6073C103.475 14.2838 102.777 14.1221 101.568 14.1221C99.9847 14.1221 98.7845 14.6584 97.9673 15.7309C97.1502 16.8035 96.7416 18.3527 96.7416 20.3786C96.7416 24.5836 98.3163 26.6862 101.466 26.6862C101.517 26.6862 101.738 26.6862 102.13 26.6862C102.538 26.6862 102.921 26.6351 103.279 26.5329C103.636 26.4138 103.849 26.2946 103.917 26.1754C103.985 26.0563 104.02 25.869 104.02 25.6136V23.5707L106.624 23.7494V28.1673C105.296 28.8653 103.611 29.2143 101.568 29.2143C98.9633 29.2143 96.9714 28.4822 95.5924 27.0181C94.2305 25.554 93.5495 23.3749 93.5495 20.4808C93.5495 18.8805 93.7793 17.4844 94.239 16.2927C94.6986 15.101 95.32 14.1732 96.1032 13.5092C97.6354 12.2324 99.457 11.594 101.568 11.594C103.27 11.594 104.871 11.943 106.369 12.641V16.9822L103.764 17.161V15.1691C103.764 14.9137 103.73 14.7265 103.662 14.6073ZM114.606 27.0181C116.462 27.0181 117.39 25.52 117.39 22.5237C117.39 21.0085 117.177 19.8594 116.751 19.0762C116.343 18.2931 115.645 17.9015 114.657 17.9015C113.687 17.9015 112.972 18.2761 112.512 19.0252C112.052 19.7742 111.823 20.7957 111.823 22.0896C111.823 24.49 112.265 25.9967 113.15 26.6096C113.542 26.8819 114.027 27.0181 114.606 27.0181ZM108.733 22.4471C108.733 21.1873 108.92 20.0977 109.294 19.1784C109.669 18.242 110.171 17.527 110.801 17.0333C112.01 16.114 113.346 15.6543 114.81 15.6543C115.832 15.6543 116.692 15.8246 117.39 16.165C118.105 16.4885 118.658 16.8716 119.049 17.3142C119.458 17.7398 119.799 18.3697 120.071 19.2039C120.36 20.0211 120.505 20.9915 120.505 22.1151C120.505 24.4645 119.935 26.2435 118.794 27.4523C117.653 28.661 116.189 29.2654 114.402 29.2654C112.631 29.2654 111.244 28.6951 110.239 27.5544C109.235 26.3968 108.733 24.6943 108.733 22.4471ZM128.915 17.9782C128.506 17.8249 128.013 17.7483 127.434 17.7483C126.855 17.7483 126.387 17.8845 126.029 18.1569C125.689 18.4123 125.518 18.7357 125.518 19.1273C125.518 19.5018 125.578 19.7998 125.697 20.0211C125.833 20.2254 126.038 20.4041 126.31 20.5574C126.736 20.7787 127.246 20.9745 127.842 21.1447C128.438 21.2979 128.881 21.4256 129.17 21.5278C129.46 21.6129 129.817 21.7661 130.243 21.9874C130.685 22.2087 131.017 22.4471 131.239 22.7024C131.835 23.3323 132.132 24.141 132.132 25.1284C132.132 26.4053 131.664 27.4097 130.728 28.1418C129.809 28.8568 128.634 29.2143 127.204 29.2143C125.127 29.2143 123.561 28.9504 122.505 28.4227V24.8731L124.803 24.6943V25.9201C124.803 26.6691 125.518 27.0437 126.948 27.0437C128.379 27.0437 129.094 26.5244 129.094 25.4859C129.094 25.1114 128.966 24.805 128.711 24.5666C128.472 24.3283 128.234 24.1665 127.995 24.0814C127.757 23.9963 127.468 23.9112 127.127 23.8261C126.804 23.7409 126.48 23.6558 126.157 23.5707C125.85 23.4856 125.51 23.3749 125.135 23.2387C124.778 23.0855 124.378 22.8727 123.935 22.6003C123.067 22.0385 122.633 21.1021 122.633 19.7913C122.633 18.4634 123.101 17.4419 124.037 16.7269C124.974 16.0118 126.148 15.6543 127.561 15.6543C128.991 15.6543 130.404 15.9948 131.8 16.6758V19.7402L129.502 19.9189V18.8464C129.502 18.4208 129.306 18.1314 128.915 17.9782ZM136.331 13.3305H137.991V16.0374H141.387L141.132 18.1824H137.991V24.8986C137.991 25.6477 138.127 26.1754 138.399 26.4819C138.672 26.7713 139.089 26.916 139.651 26.916C140.229 26.916 140.808 26.7372 141.387 26.3797L142.153 28.3461C141.302 28.9419 140.221 29.2398 138.91 29.2398C138.144 29.2398 137.497 29.1377 136.969 28.9334C136.441 28.7461 136.05 28.5333 135.795 28.295C135.539 28.0566 135.343 27.7076 135.207 27.248C135.071 26.7883 134.994 26.4308 134.977 26.1754C134.96 25.903 134.952 25.5115 134.952 25.0007V18.1824H133.139L133.394 16.3183C134.194 16.2502 134.799 15.9693 135.207 15.4756C135.616 14.9648 135.99 14.2498 136.331 13.3305ZM154.588 16.5481V26.0478C154.588 26.3201 154.631 26.5074 154.716 26.6096C154.818 26.7117 154.988 26.7713 155.227 26.7883L156.044 26.8394V28.8823H151.984V27.4012L151.907 27.3757C151.056 28.6014 149.89 29.2143 148.408 29.2143C146.672 29.2143 145.387 28.661 144.552 27.5544C143.718 26.4478 143.301 24.9326 143.301 23.0089C143.301 20.6936 143.863 18.889 144.987 17.5951C146.11 16.3012 147.796 15.6543 150.043 15.6543C151.49 15.6543 153.005 15.9522 154.588 16.5481ZM151.626 24.822V18.208C151.149 17.9867 150.494 17.876 149.66 17.876C148.519 17.876 147.693 18.3357 147.183 19.255C146.672 20.1743 146.417 21.3916 146.417 22.9067C146.417 25.6647 147.302 27.0437 149.072 27.0437C149.822 27.0437 150.434 26.8224 150.911 26.3797C151.388 25.9201 151.626 25.4008 151.626 24.822ZM164.302 17.9782C163.894 17.8249 163.4 17.7483 162.821 17.7483C162.242 17.7483 161.774 17.8845 161.416 18.1569C161.076 18.4123 160.906 18.7357 160.906 19.1273C160.906 19.5018 160.965 19.7998 161.084 20.0211C161.221 20.2254 161.425 20.4041 161.697 20.5574C162.123 20.7787 162.634 20.9745 163.23 21.1447C163.825 21.2979 164.268 21.4256 164.557 21.5278C164.847 21.6129 165.204 21.7661 165.63 21.9874C166.073 22.2087 166.405 22.4471 166.626 22.7024C167.222 23.3323 167.52 24.141 167.52 25.1284C167.52 26.4053 167.052 27.4097 166.115 28.1418C165.196 28.8568 164.021 29.2143 162.591 29.2143C160.514 29.2143 158.948 28.9504 157.892 28.4227V24.8731L160.191 24.6943V25.9201C160.191 26.6691 160.906 27.0437 162.336 27.0437C163.766 27.0437 164.481 26.5244 164.481 25.4859C164.481 25.1114 164.353 24.805 164.098 24.5666C163.859 24.3283 163.621 24.1665 163.383 24.0814C163.144 23.9963 162.855 23.9112 162.515 23.8261C162.191 23.7409 161.868 23.6558 161.544 23.5707C161.238 23.4856 160.897 23.3749 160.523 23.2387C160.165 23.0855 159.765 22.8727 159.322 22.6003C158.454 22.0385 158.02 21.1021 158.02 19.7913C158.02 18.4634 158.488 17.4419 159.425 16.7269C160.361 16.0118 161.536 15.6543 162.949 15.6543C164.379 15.6543 165.792 15.9948 167.188 16.6758V19.7402L164.889 19.9189V18.8464C164.889 18.4208 164.694 18.1314 164.302 17.9782Z" fill="white"/>
<path d="M99.7804 41.1909C100.512 41.1909 101.21 41.2931 101.874 41.4974V38.9182C101.874 38.5436 101.653 38.3393 101.21 38.3053L100.112 38.2287V36.2113H104.862V51.7376C104.879 52.1292 105.092 52.3249 105.501 52.3249L106.394 52.376V54.4189H102.257V52.9123L102.181 52.8867C101.415 54.1295 100.257 54.7509 98.7079 54.7509C96.7671 54.7509 95.4051 54.104 94.622 52.8101C93.907 51.6354 93.5495 50.1969 93.5495 48.4944C93.5495 46.2813 94.0943 44.5107 95.1838 43.1828C96.2904 41.8549 97.8226 41.1909 99.7804 41.1909ZM101.874 50.4352V43.8212C101.262 43.5488 100.615 43.4126 99.9337 43.4126C98.81 43.4126 97.9844 43.8638 97.4566 44.7661C96.9459 45.6684 96.6905 46.8175 96.6905 48.2135C96.6905 51.0736 97.6098 52.5037 99.4485 52.5037C100.146 52.5037 100.725 52.3079 101.185 51.9163C101.645 51.5078 101.874 51.0141 101.874 50.4352ZM114.294 41.1909C115.571 41.1909 116.584 41.5059 117.333 42.1358C118.082 42.7487 118.457 43.6169 118.457 44.7405C118.457 45.4896 118.295 46.1536 117.972 46.7324C117.648 47.2942 117.248 47.7368 116.772 48.0603C116.295 48.3838 115.716 48.6477 115.035 48.8519C113.894 49.1924 112.609 49.3627 111.179 49.3627C111.23 50.265 111.511 50.997 112.022 51.5588C112.532 52.1036 113.316 52.376 114.371 52.376C115.427 52.376 116.482 52.0015 117.538 51.2524L118.508 53.3209C118.168 53.6273 117.589 53.9423 116.772 54.2657C115.971 54.5892 115.052 54.7509 114.014 54.7509C111.937 54.7509 110.413 54.1806 109.442 53.04C108.472 51.8823 107.987 50.299 107.987 48.2901C107.987 46.2813 108.54 44.5958 109.647 43.2339C110.753 41.8719 112.303 41.1909 114.294 41.1909ZM113.12 47.0388C113.75 46.9197 114.329 46.6728 114.856 46.2983C115.384 45.9067 115.648 45.4471 115.648 44.9193C115.648 43.8808 115.137 43.3616 114.116 43.3616C113.162 43.3616 112.43 43.7446 111.92 44.5107C111.409 45.2598 111.128 46.1621 111.077 47.2176C111.826 47.2006 112.507 47.141 113.12 47.0388ZM124.825 36.2113V52.2994L126.281 52.376V54.4189H120.203V52.4782L121.046 52.4015C121.539 52.3505 121.786 52.0781 121.786 51.5844V38.9948C121.786 38.6202 121.573 38.4159 121.148 38.3819L120.254 38.3308V36.2113H124.825ZM132.947 54.4189V52.3505L133.79 52.2739C134.283 52.2228 134.53 51.9844 134.53 51.5588V39.6843L133.075 39.6077V37.437H140.378C142.285 37.437 143.766 37.8882 144.822 38.7905C145.894 39.6758 146.43 41.0122 146.43 42.7997C146.43 44.5873 145.826 45.9833 144.617 46.9878C143.409 47.9752 141.808 48.4689 139.816 48.4689H137.646V52.1717L140.097 52.2483V54.4189H132.947ZM137.646 45.9918H139.484C141.97 45.9918 143.213 44.9789 143.213 42.953C143.213 41.7272 142.889 40.9185 142.242 40.527C141.612 40.1184 140.6 39.9141 139.204 39.9141H137.646V45.9918ZM154.445 41.1909C155.722 41.1909 156.735 41.5059 157.484 42.1358C158.233 42.7487 158.607 43.6169 158.607 44.7405C158.607 45.4896 158.446 46.1536 158.122 46.7324C157.799 47.2942 157.399 47.7368 156.922 48.0603C156.445 48.3838 155.866 48.6477 155.185 48.8519C154.045 49.1924 152.76 49.3627 151.329 49.3627C151.381 50.265 151.661 50.997 152.172 51.5588C152.683 52.1036 153.466 52.376 154.522 52.376C155.577 52.376 156.633 52.0015 157.688 51.2524L158.658 53.3209C158.318 53.6273 157.739 53.9423 156.922 54.2657C156.122 54.5892 155.203 54.7509 154.164 54.7509C152.087 54.7509 150.563 54.1806 149.593 53.04C148.623 51.8823 148.137 50.299 148.137 48.2901C148.137 46.2813 148.691 44.5958 149.797 43.2339C150.904 41.8719 152.453 41.1909 154.445 41.1909ZM153.27 47.0388C153.9 46.9197 154.479 46.6728 155.007 46.2983C155.534 45.9067 155.798 45.4471 155.798 44.9193C155.798 43.8808 155.288 43.3616 154.266 43.3616C153.313 43.3616 152.581 43.7446 152.07 44.5107C151.559 45.2598 151.278 46.1621 151.227 47.2176C151.976 47.2006 152.657 47.141 153.27 47.0388ZM161.988 51.5588V44.4852C161.988 44.2128 161.937 44.0255 161.835 43.9234C161.749 43.8042 161.588 43.7361 161.349 43.7191L160.277 43.6425V41.574H164.593V43.4892C164.899 42.8253 165.376 42.2805 166.023 41.8549C166.67 41.4123 167.41 41.1909 168.244 41.1909C169.096 41.1909 169.904 41.3782 170.67 41.7527V45.5577L168.295 45.7365V44.5618C168.295 44.2213 168.21 44.0085 168.04 43.9234C167.853 43.8382 167.623 43.7957 167.351 43.7957C166.67 43.7957 166.108 44.0425 165.665 44.5362C165.24 45.0129 165.027 45.6258 165.027 46.3749V52.2994L167.248 52.4015V54.4189H160.405V52.4782L161.247 52.4015C161.503 52.3675 161.69 52.2994 161.809 52.1973C161.928 52.0781 161.988 51.8653 161.988 51.5588ZM185.735 52.4015V54.4189H181.598V52.7591C180.661 54.087 179.282 54.7509 177.461 54.7509C174.822 54.7509 173.503 53.2783 173.503 50.3331V44.4341C173.503 43.9744 173.29 43.7361 172.864 43.7191L172.047 43.668V41.574H176.542V49.6691C176.542 50.5714 176.669 51.2524 176.925 51.7121C177.18 52.1717 177.708 52.4015 178.508 52.4015C179.308 52.4015 179.946 52.1547 180.423 51.661C180.917 51.1673 181.164 50.5714 181.164 49.8734V44.4852C181.164 44.2128 181.113 44.0255 181.01 43.9234C180.925 43.8042 180.764 43.7361 180.525 43.7191L179.708 43.668V41.574H184.203V51.5844C184.203 51.8568 184.245 52.044 184.33 52.1462C184.415 52.2313 184.586 52.2909 184.841 52.3249L185.735 52.4015ZM176.567 39.2501L179.529 34.3471L180.73 34.9089C181.223 35.1813 181.47 35.4877 181.47 35.8282C181.47 36.1687 181.257 36.5347 180.832 36.9263L177.563 40.0929L176.567 39.2501Z" fill="white"/>
</svg>
